# xmcd
#
# Track frame offsets:
#	150
#	11317
#	21067
#	32190
#	43312
#	57517
#	73547
#	87424
#	104110
#	117117
#	128085
#	140693
#	159072
#	174381
#	192019
#	205847
#	222567
#	234430
#	248298
#	266312
#
# Disc length: 3768 seconds
#
# Revision: 0
# Processed by: cddbd v1.5.2PL0 Copyright (c) Steve Scherf et al.
# Submitted via: audiograbber 1.83.01
#
DISCID=110eb614
DTITLE=Various Artist - Country Christmas - CD2
DYEAR=1900
DGENRE=
TTITLE0=I Heard The Bells On Christmas Day
TTITLE1=Jingle Bells
TTITLE2=Goin' Home For Christmas
TTITLE3=Christmas For Cowboys
TTITLE4=Corn, Water And Wood
TTITLE5=Christmas In Dixie
TTITLE6=All I Want For Christmas Dear Is You
TTITLE7=It Won't Be The Same This Year
TTITLE8=Christmas Will Never Be The Same
TTITLE9=Little Toy Trains
TTITLE10=Pretty Paper
TTITLE11=There's A New Kid In Town
TTITLE12=Our Saviour Is Born
TTITLE13=Christmas Spirit
TTITLE14=Beautiful Star Of Bethlehem
TTITLE15=Little Drummer Boy
TTITLE16=O Little Town Of Bethlehem
TTITLE17=Away In A Manger
TTITLE18=Oh Holy Night
TTITLE19=Silent Night, Christmas Blue
EXTD=
EXTT0=
EXTT1=
EXTT2=
EXTT3=
EXTT4=
EXTT5=
EXTT6=
EXTT7=
EXTT8=
EXTT9=
EXTT10=
EXTT11=
EXTT12=
EXTT13=
EXTT14=
EXTT15=
EXTT16=
EXTT17=
EXTT18=
EXTT19=
PLAYORDER=
